<svg xmlns="http://www.w3.org/2000/svg" width="24" height="24" viewBox="0 0 6.35 6.35" id="product"><path style="line-height:normal;font-variant-ligatures:normal;font-variant-position:normal;font-variant-caps:normal;font-variant-numeric:normal;font-variant-alternates:normal;font-variant-east-asian:normal;font-feature-settings:normal;font-variation-settings:normal;text-indent:0;text-align:start;text-decoration-line:none;text-decoration-style:solid;text-decoration-color:#000;text-transform:none;text-orientation:mixed;shape-padding:0;shape-margin:0;inline-size:0;isolation:auto;mix-blend-mode:normal" d="m 1.2932027,0.52839152 c -0.4191339,0 -0.76377769,0.346705 -0.76377769,0.76584398 v 3.761529 c 0,0.419132 0.34464379,0.765844 0.76377769,0.765844 h 3.7635945 c 0.4191339,0 0.7637778,-0.346712 0.7637778,-0.765844 v -3.761529 c 0,-0.41913898 -0.3446439,-0.76584398 -0.7637778,-0.76584398 z m 0,0.52968498 h 1.0877889 v 1.853116 c 0.00191,0.234304 0.2849452,0.350694 0.4511352,0.185517 l 0.344165,-0.341579 0.3415813,0.341579 c 0.1661901,0.165177 0.4492215,0.04879 0.4511353,-0.185517 v -1.853116 h 1.0877888 c 0.1331511,0 0.2346111,0.103011 0.2346111,0.236159 v 3.761529 c 0,0.133151 -0.10146,0.236678 -0.2346111,0.236678 H 1.2932027 c -0.133151,0 -0.2340943,-0.103527 -0.2340943,-0.236678 v -3.761529 c 0,-0.133148 0.1009433,-0.236159 0.2340943,-0.236159 z m 1.6169556,0 h 0.5296834 v 1.214395 l -0.078031,-0.07803 c -0.1032081,-0.102597 -0.2698956,-0.102597 -0.3731037,0 l -0.078548,0.07803 z" color="#000" font-family="sans-serif" font-weight="400" overflow="visible" paint-order="markers fill stroke"></path></svg>