<?xml version="1.0" standalone="no"?>
<!DOCTYPE svg PUBLIC "-//W3C//DTD SVG 20010904//EN"
 "http://www.w3.org/TR/2001/REC-SVG-20010904/DTD/svg10.dtd">
<svg version="1.0" xmlns="http://www.w3.org/2000/svg"
 width="512.000000pt" height="512.000000pt" viewBox="0 0 512.000000 512.000000"
 preserveAspectRatio="xMidYMid meet">

<g transform="translate(0.000000,512.000000) scale(0.100000,-0.100000)"
fill="#000000" stroke="none">
<path d="M2395 5109 c-161 -21 -352 -85 -497 -168 -677 -387 -892 -1261 -470
-1916 64 -100 170 -223 252 -291 38 -32 67 -61 62 -64 -4 -3 -63 -28 -131 -54
-316 -124 -591 -301 -839 -541 -319 -307 -535 -650 -673 -1066 -109 -329 -114
-487 -24 -672 59 -120 173 -230 295 -284 120 -54 104 -54 1258 -51 l1068 3 41
27 c62 41 88 90 88 168 0 78 -26 127 -88 168 l-41 27 -1070 5 c-974 5 -1074 7
-1101 22 -67 36 -115 113 -115 182 0 45 50 237 90 346 44 122 159 351 227 452
227 339 524 600 877 772 300 147 561 210 931 226 116 5 246 16 290 24 415 81
773 353 963 732 42 84 96 242 118 349 25 122 26 383 1 507 -89 449 -388 818
-806 999 -214 92 -470 127 -706 98z m406 -418 c179 -46 319 -127 449 -260 129
-130 212 -278 257 -457 24 -95 24 -333 0 -428 -75 -298 -287 -552 -558 -667
-550 -234 -1169 80 -1316 667 -24 95 -24 333 0 428 46 182 128 328 261 462
158 157 305 231 556 278 59 11 277 -3 351 -23z"/>
<path d="M3362 1989 c-47 -14 -109 -79 -123 -131 -23 -89 12 -182 88 -229 l38
-24 815 0 815 0 38 24 c21 12 49 39 62 59 21 31 25 48 25 112 0 64 -4 81 -25
112 -13 20 -41 47 -62 59 l-38 24 -800 2 c-487 1 -813 -2 -833 -8z"/>
<path d="M3362 1189 c-47 -14 -109 -79 -123 -131 -23 -89 12 -182 88 -229 l38
-24 815 0 815 0 38 24 c21 12 49 39 62 59 21 31 25 48 25 112 0 64 -4 81 -25
112 -13 20 -41 47 -62 59 l-38 24 -800 2 c-487 1 -813 -2 -833 -8z"/>
<path d="M3362 389 c-47 -14 -109 -79 -123 -131 -23 -89 12 -182 88 -229 l38
-24 815 0 815 0 38 24 c21 12 49 39 62 59 21 31 25 48 25 112 0 64 -4 81 -25
112 -13 20 -41 47 -62 59 l-38 24 -800 2 c-487 1 -813 -2 -833 -8z"/>
</g>
</svg>
